<svg version="1" xmlns="http://www.w3.org/2000/svg" width="682.667" height="682.667" viewBox="0 0 512.000000 512.000000"><path d="M30 1.6c-3 .8-7.3 2.6-9.6 3.9C14.1 9.2 5.5 19.1 2.8 25.7L.5 31.5v449l2.4 6c3.4 8.4 14.2 19.2 22.6 22.6l6 2.4h449l6-2.4c8.4-3.4 19.2-14.2 22.6-22.6l2.4-6v-449l-2.4-6c-3.4-8.4-14.2-19.2-22.6-22.6l-6-2.4L258 .3C64.5.1 34.8.3 30 1.6zm372.4 150.3c11.7 5.7 17.1 15.7 16.9 31.1-.2 22.4-13.9 35-36.7 33.8-20-1-31.7-13.5-31.7-33.9 0-9.8 1.4-15.1 5.6-21.4 6.6-9.6 15.9-13.7 30.1-13.2 7.9.2 10 .7 15.8 3.6zM67 149.3c0 .2 5.4 15 12 32.8 6.6 17.8 12 32.7 12 33.1 0 .5-4 .8-8.8.8h-8.8l-2.3-7-2.2-7H44.1l-2.2 7-2.3 7h-8.9c-4.9 0-8.7-.4-8.5-.9.2-.4 5.7-15.5 12.3-33.4l12-32.7h10.3c5.6 0 10.2.2 10.2.3zm52.2 22.6c4.2 12.3 7.9 22.5 8.1 22.7.2.2 3.9-10 8.2-22.6l7.8-23h8.9c4.8 0 8.8.2 8.8.4 0 .4-21.6 59.8-23.5 64.8-.6 1.6-2.1 1.8-10.5 1.8h-9.7l-11.6-31.8c-6.3-17.4-11.9-32.5-12.2-33.5-.7-1.6 0-1.8 8.6-1.5l9.4.3 7.7 22.4zM207 155v6h-11v43h11v12h-40v-12h11v-43h-11v-12h40v6zm51-5.7c0 .2 5.4 15 12 32.8 6.6 17.8 12 32.7 12 33.1 0 .5-4 .8-8.8.8h-8.8l-2.3-7-2.2-7h-24.8l-2.2 7-2.3 7h-8.9c-4.9 0-8.7-.4-8.5-.9.2-.4 5.7-15.5 12.3-33.4l12-32.7h10.3c5.6 0 10.2.2 10.2.3zm86 6.2v6.5h-21v54h-17v-54h-21v-13h59v6.5zm130.6-5c9.3 2.7 14.2 10.2 13.1 19.8-.7 5.9-3.4 10.2-8.8 14l-3.9 2.8 10.5 13.8c5.8 7.6 10.5 14.1 10.5 14.4 0 .4-4.6.7-10.2.7l-10.3-.1-8.9-12.4c-8.8-12.2-9-12.5-12.8-12.5H450v25h-18v-67h18.8c13.7 0 20.2.4 23.8 1.5zM313 323v42h-20v-84h20v42zm-116-37.1c3.6 1.3 7.1 2.7 7.8 3.3 1.7 1.5 1.7 19.8-.1 19.8-.7 0-3.6-1.8-6.5-3.9-20.8-15.7-42.3-2.9-39.9 23.6 1.1 11.7 6.3 19.2 15.1 21.8 9 2.7 14.4 1.6 24.1-5 3.6-2.5 7-4.5 7.5-4.5.6 0 1 3.9 1 9.6v9.5l-4.4 1.9c-12.7 5.7-30.1 6.5-41.8 2.1-16.6-6.4-25.8-25.1-22.8-46.4 2.5-17.1 12.2-28.7 28-33.3 6.9-2 24-1.2 32 1.5zm65.3 19.1c5.3 1.6 11.1 7.1 12.5 11.8.8 2.5 1.2 12.1 1.2 26.1V365h-18.9l-.3-3-.3-3-3.8 2.5c-13 8.9-29.4 6.7-35.4-4.9-1.9-3.6-1.9-13.6 0-17.3 3.9-7.5 13.2-11.3 31.5-12.9 7.8-.6 8.2-.8 7.6-2.8-2-6.9-12.4-9.4-24.9-6-11.7 3.2-10.6 3.7-10.3-4.7l.3-7.4 6.5-1.2c7.7-1.4 28.9-1 34.3.7zm115.5.5l5.2 1.8v8.4c0 4.9-.4 8.3-1 8.3s-3.4-1.4-6.4-3c-15.2-8.6-28.6-2-28.6 14.1 0 12.2 7.4 19 19.3 17.5 3.7-.5 7.1-1.7 9.9-3.6 6.5-4.5 6.8-4.2 6.8 5.5v8.4l-7.1 2.2c-5.9 1.8-8.7 2.1-16.3 1.6-12.2-.7-17.9-2.8-24.2-9.2-6.8-6.8-8.8-12.6-8.2-24.4.4-9.1 2.5-14.9 7.1-19.9 3-3.3 10.2-7.4 15.6-8.9 6.1-1.7 21.2-1.1 27.9 1.2z"/><path d="M380.2 161.7c-3.7.7-8.7 6.6-10.2 11.7-1.8 6.7-.9 18.4 1.9 22.9 3.2 5.2 6.7 7.1 13.3 7.2 4.2 0 6.4-.5 8.5-2.1 9.9-7.2 10.1-30.5.2-37.7-2.7-1.9-9.5-2.9-13.7-2zM52.6 177.7c-2 5.9-3.6 11.1-3.6 11.6 0 .4 3.4.7 7.5.7s7.5-.4 7.5-.9c0-1-7-21.4-7.5-21.9-.2-.2-1.9 4.5-3.9 10.5zM243.6 177.7c-2 5.9-3.6 11.1-3.6 11.6 0 .4 3.4.7 7.5.7s7.5-.4 7.5-.9c0-1-7-21.4-7.5-21.9-.2-.2-1.9 4.5-3.9 10.5zM450 170v9h5.8c7.4 0 12.3-2.4 13.6-6.7 2.1-7.6-2.2-11.3-13.4-11.3h-6v9zM248.2 338c-7.5 1.1-10.9 2.8-12.2 6-.9 2.3-.9 3.4.2 5.7 2.4 5 12.5 5.7 18.2 1.2 2.4-1.9 2.7-2.7 2.4-7.7-.3-6.4-.4-6.4-8.6-5.2z"/></svg>